<?xml version="1.0" standalone="no"?>
<!DOCTYPE svg PUBLIC "-//W3C//DTD SVG 20010904//EN"
 "http://www.w3.org/TR/2001/REC-SVG-20010904/DTD/svg10.dtd">
<svg version="1.0" xmlns="http://www.w3.org/2000/svg"
 width="600.000000pt" height="600.000000pt" viewBox="0 0 600.000000 600.000000"
 preserveAspectRatio="xMidYMid meet">
<metadata>
Created by potrace 1.14, written by Peter Selinger 2001-2017
</metadata>
<g transform="translate(0.000000,600.000000) scale(0.100000,-0.100000)"
fill="#000000" stroke="none">
<path d="M2799 5996 c-2 -2 -40 -6 -84 -10 -484 -38 -1034 -241 -1443 -533
-272 -194 -530 -451 -721 -718 -203 -285 -372 -648 -456 -983 -43 -170 -60
-272 -84 -482 -9 -76 -7 -530 3 -585 3 -16 12 -79 21 -140 92 -620 385 -1201
835 -1655 397 -400 889 -678 1420 -804 255 -61 397 -78 665 -79 287 -2 358 3
630 49 17 3 82 18 145 34 1169 296 2056 1269 2234 2450 52 341 43 724 -24
1057 -165 826 -683 1553 -1412 1985 -345 204 -702 329 -1106 389 -96 14 -209
21 -378 25 -132 2 -242 2 -245 0z m209 -283 c-61 -27 -72 -47 -42 -77 20 -21
30 -20 90 8 61 28 75 53 44 78 -22 18 -22 18 24 18 26 0 90 -5 144 -11 440
-47 823 -177 1180 -401 52 -32 99 -55 105 -51 7 4 52 35 101 70 49 35 91 62
93 60 2 -2 -13 -55 -32 -118 l-36 -114 58 -50 c417 -359 684 -742 852 -1219
113 -323 158 -617 148 -981 -6 -222 -20 -346 -62 -528 -14 -62 -28 -124 -31
-138 -5 -23 5 -33 96 -102 l103 -76 -129 -3 -128 -3 -41 -100 c-150 -363 -358
-670 -641 -945 -456 -444 -1042 -709 -1681 -762 l-142 -12 -38 -113 c-21 -62
-41 -113 -44 -113 -3 0 -24 52 -45 115 l-39 115 -45 0 c-60 0 -274 25 -380 45
-372 69 -792 248 -1080 461 l-75 56 45 -7 c58 -10 211 -12 202 -4 -4 4 -34 13
-67 21 -57 14 -61 17 -83 61 l-22 47 -70 0 -70 0 12 -28 c7 -15 19 -37 26 -50
8 -12 11 -22 7 -22 -16 0 -177 145 -290 262 -241 248 -437 547 -563 860 -21
51 -41 99 -45 105 -6 9 -44 13 -134 13 l-127 0 103 77 c92 69 102 79 97 102
-3 14 -16 76 -30 136 -51 225 -61 322 -61 605 0 283 9 374 61 610 83 376 289
802 534 1106 109 136 360 382 459 451 2 1 -13 55 -33 119 -20 64 -35 119 -33
121 2 2 44 -25 93 -60 49 -35 95 -66 101 -70 7 -4 42 12 80 37 408 264 933
423 1403 424 l135 1 -57 -26z"/>
<path d="M3165 5590 c-38 -4 -135 -8 -213 -9 l-144 -1 -54 -37 c-29 -21 -54
-42 -54 -46 0 -8 49 -7 388 9 67 3 122 3 122 -1 0 -3 -24 -45 -53 -93 -29 -48
-70 -127 -91 -175 l-39 -88 -39 68 c-20 37 -38 71 -38 76 0 4 11 7 25 7 14 0
48 17 76 38 l50 37 -123 3 c-130 3 -188 -9 -222 -47 -15 -16 -13 -20 20 -52
40 -39 110 -163 144 -256 24 -68 37 -75 88 -49 52 27 82 73 147 228 57 135
104 224 175 336 11 16 12 26 4 40 -13 20 -61 23 -169 12z"/>
<path d="M1395 5199 c4 -13 63 -196 131 -405 68 -210 124 -386 124 -391 0 -5
-14 -22 -31 -39 -59 -56 -183 -210 -245 -304 -235 -360 -349 -799 -313 -1210
7 -80 13 -160 13 -177 1 -32 -11 -42 -343 -283 l-343 -250 431 0 431 0 30 -60
c47 -93 182 -287 262 -376 72 -80 175 -178 253 -241 l40 -32 -45 -2 c-25 -1
-51 -2 -59 -1 -8 0 -30 -10 -50 -22 -75 -46 -152 -76 -196 -76 -25 0 -45 -4
-45 -8 0 -15 134 -42 183 -37 42 4 48 3 43 -13 -3 -9 -8 -35 -11 -57 -12 -73
-13 -74 -44 -65 -15 4 -55 11 -88 15 -119 13 -198 -51 -174 -141 9 -32 21 -46
74 -80 70 -46 135 -64 234 -64 79 0 73 10 -17 34 -150 40 -208 140 -110 191
28 14 35 14 99 -5 38 -12 86 -20 107 -18 l38 3 21 105 c12 58 33 131 46 162
l25 57 69 -45 c217 -140 450 -235 689 -280 50 -9 96 -18 103 -20 9 -2 210
-597 264 -781 7 -24 15 -43 18 -43 3 0 66 186 140 413 l133 412 95 19 c269 52
553 177 778 343 116 85 323 292 408 408 36 50 94 138 127 197 l61 108 439 2
438 3 -354 255 -354 255 5 40 c3 22 8 131 11 242 8 237 -7 370 -62 570 -81
298 -222 553 -438 796 l-74 84 134 413 c74 227 133 414 132 416 -2 1 -161
-112 -353 -252 -193 -140 -353 -254 -358 -254 -4 0 -43 18 -86 40 -270 135
-657 208 -971 181 -165 -13 -261 -31 -407 -72 -102 -30 -294 -105 -339 -134
-18 -12 -46 6 -330 212 -428 311 -398 291 -389 262z m1948 -469 c160 -34 407
-119 407 -140 0 -4 -151 -117 -335 -250 -184 -134 -335 -246 -335 -249 1 -7
175 -131 185 -131 3 0 162 113 353 252 197 144 354 251 365 251 11 -1 46 16
78 38 33 22 59 35 59 30 0 -5 -9 -38 -20 -73 -20 -63 -20 -63 0 -78 20 -15 16
-28 -177 -622 -177 -548 -198 -606 -214 -597 -16 8 -21 0 -40 -61 -21 -64 -22
-72 -7 -86 14 -14 9 -35 -51 -220 l-66 -204 -393 0 -393 0 7 -22 c4 -13 15
-45 24 -73 l17 -50 394 -5 c217 -3 641 -3 944 0 l550 5 -387 280 c-213 154
-387 285 -388 290 0 15 371 1159 380 1168 4 5 36 -27 70 -70 212 -262 342
-564 385 -890 15 -117 19 -338 7 -406 l-7 -39 -331 241 c-183 133 -336 241
-341 241 -5 0 -24 -48 -43 -106 -34 -104 -34 -106 -15 -120 11 -8 170 -124
353 -256 288 -210 332 -245 328 -263 -5 -18 6 -30 55 -66 l61 -44 -77 -3 c-67
-2 -78 -6 -82 -22 -5 -20 -19 -20 -644 -20 -563 0 -638 2 -633 15 5 13 -7 15
-75 15 -65 0 -81 -3 -81 -15 0 -13 -31 -15 -222 -15 l-223 0 -119 370 -120
369 -60 -44 c-34 -24 -60 -47 -60 -52 2 -12 212 -666 324 -1008 54 -165 133
-407 176 -538 42 -130 79 -235 82 -232 2 2 71 208 152 457 l147 453 622 3 622
2 -17 -32 c-9 -18 -44 -72 -77 -121 -170 -249 -415 -459 -692 -592 -149 -72
-415 -155 -415 -130 0 4 56 181 125 393 69 211 125 388 125 393 0 5 -52 9
-114 9 l-115 0 -36 -112 c-225 -699 -235 -728 -260 -728 -20 0 -27 -10 -45
-57 -11 -32 -23 -65 -27 -73 -3 -9 -15 15 -30 58 -15 42 -30 72 -38 72 -9 0
-26 37 -45 97 -17 54 -105 326 -196 604 -90 278 -164 508 -164 512 0 4 6 7 14
7 21 0 -29 146 -52 152 -15 4 -75 166 -138 374 l-12 42 308 223 c170 123 308
228 307 233 -2 5 -28 27 -59 49 l-56 39 -273 -197 c-320 -232 -342 -247 -858
-623 l-393 -287 487 -5 488 -5 192 -590 c105 -324 189 -591 185 -593 -3 -1
-49 8 -101 22 -430 109 -799 369 -1044 738 -36 53 -68 103 -71 112 -5 14 38
16 423 18 l429 3 -34 108 -34 107 -448 0 c-437 0 -449 1 -455 20 -5 16 -17 20
-83 22 l-76 3 59 45 c33 25 60 52 60 60 0 12 981 737 1024 757 7 3 16 0 21 -6
11 -19 129 68 127 93 -2 14 44 53 173 147 l174 127 31 -21 c16 -12 153 -111
304 -220 150 -109 278 -200 285 -203 7 -3 20 21 34 63 21 64 21 69 4 84 -9 9
-125 94 -257 189 -132 96 -259 190 -283 211 -23 20 -82 63 -130 95 -48 32
-251 177 -451 322 -200 145 -369 266 -377 269 -9 3 -2 -29 21 -99 154 -461
263 -814 255 -822 -5 -5 -233 -172 -507 -371 l-498 -362 -7 41 c-10 65 -9 317
2 403 49 363 203 704 434 959 l41 46 129 -398 c71 -220 132 -403 137 -408 6
-7 170 102 183 122 3 5 -56 195 -130 422 -91 280 -133 423 -129 440 3 14 -3
54 -14 88 -10 34 -17 62 -14 62 2 0 30 -18 62 -41 47 -33 62 -39 77 -31 17 9
96 -45 529 -360 281 -203 515 -374 520 -380 7 -7 6 -12 -2 -15 -22 -8 -15 -18
48 -62 49 -34 63 -40 75 -31 9 8 18 9 27 3 6 -5 85 -63 175 -127 89 -65 162
-123 162 -129 0 -5 -52 -169 -115 -364 -63 -194 -115 -357 -115 -363 0 -6 31
-10 74 -10 l74 0 26 78 c13 42 59 183 100 312 42 129 81 244 87 254 17 30 69
187 74 223 4 23 203 650 290 911 2 6 1 12 -3 12 -4 0 -180 -126 -391 -280
-211 -154 -389 -276 -394 -273 -6 4 -235 169 -508 369 l-498 362 57 25 c123
56 300 103 487 131 17 2 125 3 240 1 166 -3 230 -8 308 -25z m-1468 -140 c3
-5 -3 -14 -14 -19 -27 -15 -28 -14 -35 13 -3 13 -9 32 -13 42 -6 15 -2 15 25
-4 17 -13 34 -27 37 -32z m2315 -15 c-11 -35 -12 -35 -35 -17 -14 9 -24 19
-25 22 0 11 65 49 68 40 2 -5 -2 -26 -8 -45z m-1760 -666 c99 -72 182 -134
185 -139 5 -8 -189 -155 -219 -166 -7 -3 -33 60 -70 173 -73 219 -86 263 -80
263 2 0 85 -59 184 -131z m1269 -92 c-50 -155 -73 -216 -82 -210 -53 32 -217
158 -215 164 4 11 360 271 364 266 2 -2 -28 -101 -67 -220z m-1500 -1091 c22
-72 39 -131 37 -133 -2 -2 -107 -2 -233 -1 l-230 3 186 136 c102 75 189 133
193 130 3 -3 24 -64 47 -135z m1861 -1 l181 -130 -227 -3 c-125 -1 -228 -1
-230 1 -6 6 81 267 88 265 4 -2 89 -61 188 -133z m852 -335 l41 -30 -56 0
c-32 0 -57 2 -57 4 0 11 20 56 25 56 3 0 24 -13 47 -30z m-3759 -10 c5 -18 0
-20 -36 -20 l-42 1 29 24 c33 26 41 25 49 -5z m1997 -246 c0 -3 -32 -106 -72
-228 l-72 -221 -66 205 c-37 113 -70 215 -74 228 l-7 22 145 0 c80 0 146 -3
146 -6z m-110 -1090 c0 -18 -24 -84 -30 -84 -4 0 -10 12 -13 28 -3 15 -9 35
-12 45 -6 14 -2 17 24 17 17 0 31 -3 31 -6z"/>
<path d="M5049 4091 c-44 -55 -77 -67 -153 -54 -33 6 -62 10 -63 9 -1 -1 20
-26 46 -56 l49 -55 78 0 c44 1 89 5 101 9 18 6 24 3 36 -21 29 -56 30 -71 5
-78 -28 -9 -211 -86 -217 -91 -8 -7 82 -94 97 -94 8 0 50 16 95 35 44 19 82
35 83 35 3 0 34 -92 34 -102 0 -4 -9 -8 -20 -8 -47 0 -190 -74 -190 -99 0 -3
22 -25 50 -49 l50 -43 34 26 c19 15 58 35 86 46 49 18 53 19 80 2 16 -9 32
-14 36 -10 6 5 -45 181 -73 252 -3 9 37 27 126 56 l131 44 -50 49 -50 50 -102
-33 c-121 -40 -115 -43 -155 88 -40 133 -86 163 -144 92z"/>
<path d="M586 4068 c-7 -13 -24 -59 -35 -103 -12 -44 -35 -122 -51 -173 l-28
-93 22 -67 23 -67 31 100 c17 55 43 141 58 190 14 50 27 91 29 93 1 2 31 -17
66 -41 60 -41 174 -97 197 -97 29 0 15 -22 -44 -70 l-66 -54 4 -46 c5 -47 33
-112 107 -247 26 -48 41 -67 45 -57 7 18 -27 146 -55 204 -20 40 -20 43 -2 62
10 11 54 44 98 73 111 73 110 72 89 142 -10 32 -22 63 -28 69 -6 7 -56 26
-111 43 -103 33 -226 93 -277 136 -37 31 -54 31 -72 3z"/>
<path d="M4157 1388 c-27 -48 -29 -59 -32 -197 -2 -80 -5 -159 -7 -176 l-3
-30 70 -2 c126 -2 113 6 99 -65 -19 -88 -18 -187 1 -194 8 -4 44 16 85 45 74
54 95 64 65 31 -18 -20 -18 -21 5 -45 43 -45 120 -22 120 35 0 36 -28 54 -73
45 l-32 -5 25 17 c99 72 115 90 133 147 10 32 17 59 15 61 -2 2 -66 -41 -142
-96 -76 -55 -139 -99 -141 -97 -2 2 -1 24 2 51 5 40 9 47 28 47 34 0 73 36 86
80 11 36 9 45 -21 114 -19 42 -38 76 -44 76 -6 0 -22 -25 -36 -56 l-25 -55
-73 -4 -73 -4 7 72 c4 40 8 73 9 75 2 2 12 -1 22 -7 11 -5 42 -13 69 -16 l49
-7 23 54 c12 29 22 59 22 65 0 7 -20 15 -45 19 -25 3 -70 22 -101 40 -31 19
-57 34 -58 34 0 0 -14 -23 -29 -52z"/>
</g>
</svg>
